<?xml version="1.0" encoding="UTF-8" standalone="no"?>
<!-- Created with Inkscape (http://www.inkscape.org/) -->

<svg
   xmlns:dc="http://purl.org/dc/elements/1.1/"
   xmlns:cc="http://creativecommons.org/ns#"
   xmlns:rdf="http://www.w3.org/1999/02/22-rdf-syntax-ns#"
   xmlns:svg="http://www.w3.org/2000/svg"
   xmlns="http://www.w3.org/2000/svg"
   xmlns:sodipodi="http://sodipodi.sourceforge.net/DTD/sodipodi-0.dtd"
   xmlns:inkscape="http://www.inkscape.org/namespaces/inkscape"
   width="39.742863mm"
   height="34.370808mm"
   viewBox="0 0 140.82117 121.78633"
   id="svg2"
   version="1.1"
   inkscape:version="0.91 r13725"
   sodipodi:docname="volume.svg">
  <defs
     id="defs4" />
  <sodipodi:namedview
     id="base"
     pagecolor="#525252"
     bordercolor="#666666"
     borderopacity="1.0"
     inkscape:pageopacity="0"
     inkscape:pageshadow="2"
     inkscape:zoom="4"
     inkscape:cx="9.432745"
     inkscape:cy="38.028837"
     inkscape:document-units="px"
     inkscape:current-layer="layer1"
     showgrid="false"
     inkscape:window-width="1920"
     inkscape:window-height="1004"
     inkscape:window-x="0"
     inkscape:window-y="25"
     inkscape:window-maximized="1"
     fit-margin-top="0"
     fit-margin-left="0"
     fit-margin-right="0"
     fit-margin-bottom="0" />
  <metadata
     id="metadata7">
    <rdf:RDF>
      <cc:Work
         rdf:about="">
        <dc:format>image/svg+xml</dc:format>
        <dc:type
           rdf:resource="http://purl.org/dc/dcmitype/StillImage" />
        <dc:title></dc:title>
      </cc:Work>
    </rdf:RDF>
  </metadata>
  <g
     inkscape:label="Calque 1"
     inkscape:groupmode="layer"
     id="layer1"
     transform="translate(-21.305083,-248.17664)">
    <path
       style="fill:#ffffff;fill-opacity:1"
       d="m 90.016683,272.13987 0,23.96382 0.68592,0.64684 c 1.193811,1.12577 2.802317,3.61106 3.488158,5.38951 1.266987,3.28539 1.604044,6.74131 0.996997,10.22237 -0.606635,3.47871 -2.37384,7.0351 -4.485155,9.02611 l -0.68592,0.64683 0,23.96382 0,23.96381 -6.882172,-0.0138 -6.882171,-0.0138 -13.764344,-12.97741 -13.764343,-12.97741 -13.709287,-0.002 -13.709287,-0.002 0,-34.90638 0,-34.90639 13.709287,-4.3e-4 13.709287,-4.4e-4 13.764343,-12.98005 13.764344,-12.98003 6.882171,-0.0132 6.882172,-0.013 0,23.96381 z m 42.394177,-21.49794 c 14.18168,7.87403 24.67316,23.85239 28.3862,43.23175 1.03179,5.38526 1.3292,8.7852 1.3292,15.19584 0,4.31275 -0.1063,6.82342 -0.38685,9.13953 -2.70393,22.32012 -13.4337,40.3379 -29.35872,49.30011 -1.10673,0.62285 -2.06365,1.13244 -2.12648,1.13244 -0.0628,0 -0.40952,-0.61939 -0.77042,-1.37643 -0.36088,-0.75704 -1.40336,-2.93082 -2.31659,-4.83062 l -1.66045,-3.4542 1.13964,-0.58795 c 1.9957,-1.0296 5.26636,-3.3283 7.09914,-4.98945 9.27502,-8.40654 15.10397,-20.48276 17.19998,-35.63437 0.48125,-3.47876 0.54739,-13.07492 0.11386,-16.51722 -1.57236,-12.48454 -5.93932,-23.46912 -12.53544,-31.53147 -3.0639,-3.74497 -7.69189,-7.68438 -11.32906,-9.64349 l -1.69231,-0.91152 1.44362,-3.01683 c 0.794,-1.65926 1.83284,-3.83443 2.30855,-4.83373 0.47569,-0.99929 0.93447,-1.807 1.01949,-1.79489 0.085,0.0121 1.0465,0.51722 2.13664,1.1225 z m -18.63533,20.66819 c 3.33062,2.00315 6.07012,4.33837 8.48102,7.22945 5.15016,6.17591 8.60342,14.24562 9.95467,23.26238 0.54747,3.65325 0.54747,10.88189 0,14.53515 -1.93736,12.92793 -8.1219,23.64108 -17.12121,29.65815 -1.73476,1.15989 -3.43038,2.08313 -3.55965,1.93817 -0.20123,-0.22562 -4.58178,-9.51063 -4.51612,-9.57236 0.0386,-0.0363 0.66485,-0.41562 1.39161,-0.84285 6.06129,-3.56326 10.83002,-11.14706 12.64306,-20.10648 0.61438,-3.03612 0.95772,-7.47743 0.7896,-10.21416 -0.76854,-12.51124 -5.79085,-21.90813 -14.53783,-27.20075 -0.32577,-0.19712 -0.10684,-0.77026 1.91022,-5.00132 1.25299,-2.62827 2.37726,-4.78251 2.49839,-4.78717 0.12113,-0.004 1.05094,0.49113 2.06624,1.10179 z"
       id="path4252"
       inkscape:connector-curvature="0" />
  </g>
</svg>
